<mxfile host="app.diagrams.net" modified="2023-10-06T04:07:18.136Z" agent="Mozilla/5.0 (X11; Linux x86_64; rv:109.0) Gecko/20100101 Firefox/119.0" version="22.0.3" etag="kzioUzI3HHQfyrvzQ7Fr" type="github">
  <diagram name="Page-1" id="KbLNv4svSwHUdExP1In3">
    <mxGraphModel>
      <root>
        <mxCell id="0" />
        <mxCell id="1" parent="0" />
      </root>
    </mxGraphModel>
  </diagram>
</mxfile>
